<?xml version="1.0" encoding="UTF-8"?>
<svg id="Layer_2" data-name="Layer 2" xmlns="http://www.w3.org/2000/svg" viewBox="0 0 193.06 341.58">
  <defs>
    <style>
      .cls-1 {
        fill: #fff;
      }

      .cls-2 {
        fill: #5a5ca0;
      }
    </style>
  </defs>
  <g id="Special_Fabrication" data-name="Special Fabrication">
    <g>
      <path class="cls-2" d="M191.53,219.43c-21.6-28.73-21.6-68.54,0-97.27,2.31-3.07,1.95-7.4-.77-10.12L83.29,4.57c-6.44-6.44-17.03-6.02-22.91.94-80.5,95.24-80.5,235.32,0,330.57,5.88,6.96,16.47,7.38,22.91.94l107.47-107.47c2.72-2.72,3.08-7.04.77-10.12Z"/>
      <g>
        <path class="cls-1" d="M102.61,146.29h-41.32c-.57,0-1.04.47-1.04,1.04v24.36c0,.57.47,1.04,1.04,1.04h41.32c.57,0,1.04-.47,1.04-1.04v-24.36c0-.57-.47-1.04-1.04-1.04ZM101.57,170.65h-39.25v-22.29h39.25v22.29Z"/>
        <path class="cls-1" d="M116.7,151.78h-5.29v-14.72c0-6.3-5.13-11.43-11.43-11.43h-36.06c-6.3,0-11.43,5.13-11.43,11.43v14.72h-5.29c-.57,0-1.04.47-1.04,1.04v13.38c0,.57.47,1.04,1.04,1.04h5.29v36.46c0,6.3,5.13,11.43,11.43,11.43h36.06c6.3,0,11.43-5.13,11.43-11.43v-36.46h5.29c.57,0,1.04-.47,1.04-1.04v-13.38c0-.57-.47-1.04-1.04-1.04ZM54.56,166.2v-25.83h54.77v44.98h-54.77v-19.15ZM54.56,137.06c0-5.16,4.2-9.35,9.35-9.35h36.06c5.16,0,9.35,4.2,9.35,9.35v1.23h-54.77v-1.23ZM48.23,165.16v-11.3h4.25v11.3h-4.25ZM109.34,203.7c0,5.16-4.2,9.35-9.35,9.35h-36.06c-5.16,0-9.35-4.2-9.35-9.35v-16.28h54.77v16.28ZM115.67,165.16h-4.25v-11.3h4.25v11.3Z"/>
        <path class="cls-1" d="M66.52,165.4c.2.2.47.3.73.3s.53-.1.73-.3l11.35-11.35c.41-.41.41-1.06,0-1.47-.41-.41-1.06-.41-1.47,0l-11.35,11.35c-.41.41-.41,1.06,0,1.47Z"/>
        <path class="cls-1" d="M66.22,158.18c.27,0,.53-.1.73-.3l4.86-4.86c.41-.41.41-1.06,0-1.47-.41-.41-1.06-.41-1.47,0l-4.86,4.86c-.41.41-.41,1.06,0,1.47.2.2.47.3.73.3Z"/>
      </g>
    </g>
  </g>
</svg>