<?xml version="1.0" encoding="UTF-8"?>
<svg id="Layer_2" data-name="Layer 2" xmlns="http://www.w3.org/2000/svg" viewBox="0 0 341.58 193.06">
 <g>
        <path class="cls-1" d="M194.26,96.98l-6.28-3.38s-.02,0-.03-.01c-.06-.03-.12-.05-.18-.07-.02,0-.03-.01-.05-.02-.07-.02-.15-.03-.23-.03h-16.45l-9.61-7.75c-.18-.15-.41-.23-.65-.23h-22.87l3.96-3.96c.41-.41.41-1.06,0-1.47-.41-.41-1.06-.41-1.47,0l-5.6,5.6c-.06.04-.12.09-.18.14l-2.43,2.47h-.01s0,.01,0,.01l-7.09,7.19c-.19.19-.3.46-.3.73v7.61c0,.27.11.54.3.73l9.53,9.67c.2.2.46.31.74.31h6.67l-4.99,13.25c-.51,1.36-.33,2.89.5,4.09.78,1.13,2.04,1.82,3.4,1.9v21.73c0,.57.47,1.04,1.04,1.04s1.04-.47,1.04-1.04v-21.71h3.28v21.71c0,.57.47,1.04,1.04,1.04s1.04-.47,1.04-1.04v-21.71h.15c1.65,0,3.15-.9,3.92-2.36l9.15-17.26,9.45-7.62h16.45c.08,0,.16-.01.23-.03.02,0,.04-.01.06-.02.06-.02.11-.04.16-.06.01,0,.02,0,.03-.01l6.28-3.38c.34-.18.55-.53.55-.91v-4.23c0-.38-.21-.73-.55-.91ZM186.45,104.46h-3.8v-8.91h3.8v8.91ZM126.87,103.38v-6.76l6.82-6.92,2.14-2.14h24.58l9.23,7.44v9.99l-9.23,7.44h-24.61l-8.93-9.06ZM150.62,130.45c-.41.77-1.21,1.25-2.08,1.25h-7.34c-.78,0-1.49-.37-1.94-1.02-.45-.65-.54-1.44-.27-2.17l5.27-13.99h14.8l-8.44,15.92ZM171.72,95.55h8.86v8.91h-8.86v-8.91ZM192.73,101.5l-4.2,2.26v-7.51l4.2,2.26v2.99Z"/>
        <path class="cls-1" d="M199.79,99.61c-.03-.06-.06-.12-.1-.18-.03-.06-.08-.11-.13-.15-.04-.05-.1-.1-.15-.13-.06-.03-.12-.07-.18-.1-.06-.03-.13-.04-.19-.06-.14-.03-.28-.03-.41,0-.06.01-.13.03-.19.06-.06.03-.12.06-.18.1-.06.03-.11.08-.16.13-.19.19-.3.46-.3.73s.11.54.3.73c.05.05.1.09.16.12.06.04.12.07.18.1s.13.05.19.06c.07.01.14.02.2.02.28,0,.55-.11.73-.3.19-.19.31-.46.31-.73,0-.07-.01-.14-.02-.21-.01-.06-.03-.13-.06-.19Z"/>
        <path class="cls-1" d="M207.06,99.14c-.06-.03-.12-.07-.18-.1-.06-.03-.13-.04-.19-.06-.13-.03-.27-.03-.41,0-.06.01-.13.03-.19.06-.06.03-.12.06-.18.1-.06.03-.11.08-.15.13-.19.19-.31.46-.31.73,0,.07,0,.13.02.2.01.07.03.13.06.19.03.06.06.12.1.18s.08.11.13.16c.04.05.1.09.15.12.06.04.12.07.18.1s.13.05.19.06c.07.01.14.02.21.02.27,0,.54-.11.73-.3.19-.19.3-.46.3-.73s-.11-.55-.3-.73c-.05-.05-.1-.1-.16-.13Z"/>
        <path class="cls-1" d="M215.1,99.61c-.02-.06-.06-.12-.09-.18-.04-.06-.08-.1-.13-.15-.05-.05-.1-.1-.16-.13-.06-.03-.12-.07-.18-.1-.06-.03-.12-.04-.19-.06-.13-.03-.27-.03-.41,0-.06.01-.13.03-.19.06-.06.03-.12.06-.18.1-.06.03-.1.08-.15.13-.19.19-.31.46-.31.73s.11.54.31.73c.05.05.1.09.15.12.06.04.12.07.18.1.06.03.13.05.19.06.07.01.14.02.21.02s.13,0,.2-.02c.07-.01.13-.03.19-.06s.12-.06.18-.1c.06-.03.11-.08.16-.12s.09-.1.13-.16c.04-.06.07-.12.09-.18.03-.06.05-.12.06-.19.01-.07.02-.14.02-.2,0-.07,0-.14-.02-.21-.01-.06-.03-.13-.06-.19Z"/>
        <path class="cls-1" d="M221.6,98.99c-.07.01-.13.03-.19.06-.06.03-.12.06-.18.1-.06.03-.11.08-.16.13-.05.04-.09.1-.13.15-.04.06-.07.12-.1.18-.02.06-.04.13-.06.19-.01.07-.02.14-.02.21,0,.27.11.54.3.73.05.05.1.09.16.12.06.04.12.07.18.1s.12.05.19.06c.06.01.13.02.2.02.27,0,.54-.11.73-.3s.31-.46.31-.73-.11-.55-.31-.73c-.24-.24-.6-.35-.94-.28Z"/>
        <path class="cls-1" d="M230.48,99.8c-.01-.06-.03-.13-.06-.19-.03-.06-.06-.12-.1-.18-.04-.06-.08-.11-.13-.16-.05-.04-.1-.09-.16-.12-.06-.04-.11-.07-.18-.1-.06-.03-.13-.04-.19-.06-.33-.07-.69.04-.94.28-.05.05-.09.1-.13.16-.03.06-.07.12-.09.18-.03.06-.05.13-.06.19-.01.07-.02.14-.02.21,0,.06,0,.13.02.2.01.07.03.13.06.19.02.06.06.12.09.18.04.06.08.11.13.16.19.19.46.3.73.3s.54-.11.73-.3c.19-.19.31-.46.31-.73,0-.07,0-.14-.02-.21Z"/>
        <path class="cls-1" d="M202.11,94.25c-.19.19-.31.46-.31.73s.11.54.31.73c.19.19.46.3.73.3.07,0,.14,0,.21-.02.06-.01.13-.03.19-.06.06-.03.12-.06.17-.1.06-.04.11-.08.16-.13.19-.19.31-.46.31-.73s-.11-.54-.31-.73c-.38-.39-1.09-.39-1.47,0Z"/>
        <path class="cls-1" d="M211.34,92.95c-.03-.06-.05-.12-.1-.18-.03-.06-.08-.1-.12-.15-.05-.05-.1-.1-.16-.13-.06-.03-.12-.07-.18-.1s-.13-.04-.19-.06c-.34-.07-.7.04-.94.28-.05.05-.1.1-.13.15-.03.06-.07.12-.1.18s-.05.13-.06.19c-.01.07-.02.14-.02.21,0,.06,0,.13.02.2,0,.06.03.13.06.19.03.06.06.12.1.18.04.06.08.11.13.16.19.19.46.3.73.3.06,0,.13,0,.2-.02.06-.01.13-.03.19-.06s.12-.06.18-.1c.06-.03.11-.08.16-.12.04-.05.09-.1.12-.16.04-.06.07-.12.1-.18.03-.06.05-.13.06-.19.01-.07.02-.14.02-.2,0-.07,0-.14-.02-.21-.01-.06-.04-.13-.06-.19Z"/>
        <path class="cls-1" d="M218.88,91.31c-.02-.06-.06-.12-.09-.18-.04-.06-.08-.11-.13-.16-.24-.24-.6-.35-.94-.28-.07.01-.13.03-.19.06-.06.02-.13.06-.18.09-.06.04-.11.08-.16.13-.19.19-.31.46-.31.73s.11.54.31.73c.05.05.1.09.16.13.05.03.12.07.18.1.06.02.12.04.19.06.06.01.13.02.2.02s.14,0,.2-.02c.07-.01.13-.03.19-.06.06-.03.12-.06.18-.1.06-.04.11-.08.16-.13s.09-.1.13-.16c.04-.06.07-.11.09-.18.03-.06.05-.12.06-.19.01-.06.02-.13.02-.2s0-.14-.02-.2c-.01-.07-.03-.13-.06-.19Z"/>
        <path class="cls-1" d="M224.73,89.34c-.19.19-.3.46-.3.73s.11.54.3.73c.19.19.46.3.73.3s.54-.11.73-.3c.19-.19.31-.46.31-.73s-.11-.54-.31-.73c-.39-.39-1.08-.39-1.47,0Z"/>
        <path class="cls-1" d="M202.11,104.29c-.19.19-.31.46-.31.73s.11.54.31.73c.19.19.46.3.73.3.07,0,.14,0,.21-.02.06-.01.13-.03.19-.06.06-.02.12-.06.17-.09.06-.04.11-.08.16-.13.19-.19.31-.46.31-.73s-.11-.54-.31-.73c-.38-.39-1.09-.39-1.47,0Z"/>
        <path class="cls-1" d="M211.34,106.26c-.03-.06-.05-.12-.1-.18-.03-.06-.08-.11-.12-.16-.05-.05-.1-.09-.16-.12-.06-.04-.12-.07-.18-.1s-.13-.05-.19-.06c-.34-.07-.7.05-.94.28-.05.05-.1.1-.13.16-.03.06-.07.12-.1.18s-.05.13-.06.19c-.01.07-.02.14-.02.2,0,.07,0,.14.02.21,0,.06.03.13.06.19.03.06.06.12.1.18.04.06.08.1.13.15.19.19.46.3.73.3.06,0,.13,0,.2-.01.06-.01.13-.03.19-.06s.12-.06.18-.1c.06-.03.11-.08.16-.13.04-.05.09-.1.12-.15.04-.06.07-.12.1-.18.03-.06.05-.13.06-.19.01-.07.02-.14.02-.21,0-.06,0-.13-.02-.2-.01-.06-.04-.13-.06-.19Z"/>
        <path class="cls-1" d="M218.88,107.9c-.02-.07-.06-.12-.09-.18-.04-.06-.08-.11-.13-.16-.24-.24-.6-.35-.94-.28-.07.01-.13.03-.19.06-.06.03-.13.06-.18.1-.06.04-.11.08-.16.13-.19.19-.31.46-.31.73s.11.54.31.73c.19.19.46.3.73.3.07,0,.14,0,.2-.02.07-.01.13-.03.19-.06.06-.02.12-.06.18-.09.06-.04.11-.08.16-.13s.09-.1.13-.16c.04-.06.07-.12.09-.18.03-.06.05-.12.06-.19.01-.06.02-.13.02-.2s0-.14-.02-.2c-.01-.07-.03-.13-.06-.19Z"/>
        <path class="cls-1" d="M226.05,109.07c-.06-.04-.12-.07-.18-.1-.06-.03-.13-.05-.19-.06-.14-.02-.28-.02-.41,0-.07.01-.13.03-.19.06s-.12.06-.18.1c-.06.03-.11.08-.16.12-.19.19-.3.46-.3.73,0,.07,0,.14.02.21.01.06.04.13.06.19.03.06.06.12.1.18.03.06.08.11.12.16.19.19.46.3.73.3.07,0,.14,0,.21-.02.06,0,.13-.03.19-.06.06-.03.12-.06.18-.1.06-.03.11-.08.15-.12.05-.05.1-.1.13-.16.03-.06.07-.12.1-.18.03-.06.04-.13.06-.19.01-.07.02-.14.02-.21,0-.27-.11-.54-.31-.73-.04-.05-.1-.09-.15-.12Z"/>
      </g>
</svg>