<?xml version="1.0" encoding="UTF-8"?>
<svg id="Layer_2" data-name="Layer 2" xmlns="http://www.w3.org/2000/svg" viewBox="0 0 341.58 193.06">
  
  <g id="Special_Fabrication" data-name="Special Fabrication">
    <g>
        <path class="cls-1" d="M221.46,123.62h-4.97v-13.55c0-10.74-6.21-20.37-15.88-24.83l7.93-24.28c1.01-3.1-.36-6.43-3.27-7.92l-31.67-16.14c-2.91-1.48-6.41-.64-8.33,2.01l-18.2,25.12c-.13.18-.2.39-.2.6l-.1,18.27c-13.71,1.69-23.94,13.19-23.94,27.15v13.55h-5c-.57,0-1.04.47-1.04,1.04s.47,1.04,1.04,1.04h103.63c.57,0,1.04-.47,1.04-1.04s-.47-1.04-1.04-1.04ZM193.4,123.62h-7.95v-.89c0-2.48,2.02-4.5,4.5-4.5h3.46v5.39ZM195.47,111.1h18.94v12.51h-18.94v-12.51ZM124.91,110.06c0-12.81,9.31-23.39,21.85-25.06l-.02,4.32c0,.39.22.75.57.93l5.2,2.65c.51.26,1.14.06,1.4-.45.26-.51.06-1.14-.45-1.4l-4.63-2.36.13-23.71,18-24.85c1.31-1.81,3.71-2.39,5.7-1.37l31.67,16.14c1.99,1.01,2.93,3.29,2.24,5.42l-9.53,29.17-19.11,14.04-3.64-1.85c-.51-.26-1.14-.06-1.4.45-.26.51-.06,1.14.45,1.4l4.21,2.14c.15.08.31.11.47.11.22,0,.43-.07.62-.2l19.89-14.62c.17-.13.31-.31.37-.51l1.05-3.23c8.5,4.02,14.03,12.38,14.41,21.8h-19.94c-.57,0-1.04.47-1.04,1.04v6.08h-3.46c-3.63,0-6.58,2.95-6.58,6.58v.89h-58.45v-13.55Z"/>
        <path class="cls-1" d="M154.78,71.65l33.44,17.04c.15.08.31.11.47.11.38,0,.74-.21.93-.57l7.24-14.2c.13-.25.15-.53.06-.79s-.27-.48-.52-.6l-33.44-17.04c-.51-.26-1.14-.06-1.4.45l-7.24,14.2c-.13.25-.15.53-.06.79s.27.48.52.6ZM162.94,57.92l31.59,16.1-6.29,12.35-31.59-16.1,6.29-12.35Z"/>
        <path class="cls-1" d="M172,66.08l-6.3,4.09c-.48.31-.62.96-.31,1.44.2.31.53.47.87.47.19,0,.39-.05.57-.17l6.3-4.09c.48-.31.62-.96.31-1.44s-.96-.62-1.44-.31Z"/>
        <path class="cls-1" d="M184.35,72.37l-6.3,4.09c-.48.31-.62.96-.31,1.44.2.31.53.47.87.47.19,0,.39-.05.57-.17l6.3-4.09c.48-.31.62-.96.31-1.44-.31-.48-.96-.62-1.44-.31Z"/>
        <path class="cls-1" d="M142.85,102.97c.54.19,1.13-.1,1.32-.63.19-.54-.09-1.14-.63-1.33-.27-.09-6.53-2.23-11.42,3.03-.39.42-.37,1.08.05,1.47.2.19.45.28.71.28.28,0,.56-.11.76-.33,3.94-4.24,8.99-2.56,9.2-2.49Z"/>
        <path class="cls-1" d="M169.93,107.23c-.28-2.54-1.33-4.9-3.03-6.81l-.8-.9-3.93-4.67c-.18-.21-.43-.34-.71-.37-.28-.02-.55.07-.76.25l-12.6,10.75-.77-.91c-.37-.44-1.02-.5-1.46-.13-.44.37-.5,1.03-.13,1.46l1.88,2.24,2.82,3.36-8.75,7.22-6.63-7.89c-.37-.44-1.03-.5-1.46-.13-.44.37-.5,1.03-.13,1.46l2,2.38-2.01,2.01c-.41.41-.41,1.06,0,1.47.2.2.47.3.73.3s.53-.1.73-.3l1.88-1.88,3.95,4.7c.21.24.5.37.8.37.23,0,.47-.08.66-.24l10.35-8.55s0,0,0,0c0,0,0,0,0,0l12.62-10.76.14.15c1.41,1.59,2.28,3.54,2.51,5.65l1.28,11.62c.06.53.51.92,1.03.92.04,0,.08,0,.12,0,.57-.06.98-.58.92-1.15l-1.28-11.62ZM152.05,110.15l-1.21-1.44-1.39-1.66,11.81-10.08,2.6,3.09-11.81,10.08Z"/>
        <path class="cls-1" d="M176.06,116.94l-1.5,1.21c-.45.36-.52,1.01-.16,1.46.21.25.51.39.81.39.23,0,.46-.08.65-.23l1.5-1.21c.45-.36.52-1.01.16-1.46-.36-.45-1.01-.51-1.46-.16Z"/>
        <path class="cls-1" d="M182.4,111.69c-.36-.45-1.01-.51-1.46-.16l-1.5,1.21c-.45.36-.52,1.01-.16,1.46.21.25.51.39.81.39.23,0,.46-.08.65-.23l1.5-1.21c.45-.36.52-1.01.16-1.46Z"/>
        <path class="cls-1" d="M164.6,116.95c-.36-.45-1.01-.52-1.46-.16-.45.36-.52,1.01-.16,1.46l1.21,1.5c.21.25.51.39.81.39.23,0,.46-.08.65-.23.45-.36.52-1.01.16-1.46l-1.21-1.5Z"/>
        <path class="cls-1" d="M159.3,114.29c-.36-.45-1.01-.51-1.46-.16-.45.36-.52,1.01-.16,1.46l1.21,1.5c.21.25.51.39.81.39.23,0,.46-.08.65-.23.45-.36.52-1.01.16-1.46l-1.21-1.5Z"/>
      </g>
  </g>
</svg>