<?xml version="1.0" encoding="UTF-8"?>
<svg id="Layer_2" data-name="Layer 2" xmlns="http://www.w3.org/2000/svg" viewBox="0 0 193.06 341.58">
  <g id="Special_Fabrication" data-name="Special Fabrication">
    <g>
      <g>
        <path class="cls-1" d="M145.02,173.55h-5.23v-3.6c0-.57-.47-1.04-1.04-1.04h-4.89v-1.75c0-.57-.47-1.04-1.04-1.04h-6c-.57,0-1.04.47-1.04,1.04v.54h-2.62c-1.29,0-2.51-.5-3.42-1.42l-4.36-4.36.22-.22c.19-.19.3-.46.3-.73s-.11-.54-.3-.73l-4.38-4.38-3.18-13.52s-.03-.07-.04-.1c-.01-.03-.02-.06-.03-.09-.05-.11-.11-.21-.2-.3,0,0,0,0,0,0l-9.79-9.79.42-.42c.41-.41.41-1.06,0-1.47l-4.24-4.24c-.19-.19-.46-.3-.73-.3s-.54.11-.73.3l-19.19,19.19c-.41.41-.41,1.06,0,1.47l4.24,4.24c.19.19.46.3.73.3s.54-.11.73-.3l.42-.42,9.79,9.79s0,0,0,0c.09.08.19.15.3.2.03.01.06.02.09.03.03.01.06.03.1.04l13.52,3.18,4.06,4.06h-14.18c-.57,0-1.04.47-1.04,1.04v3.49h-3.64v-2.02c0-.57-.47-1.04-1.04-1.04h-5.71c-.57,0-1.04.47-1.04,1.04v3.27c-6.69.53-11.97,6.13-11.97,12.96v27.63c0,.57.47,1.04,1.04,1.04s1.04-.47,1.04-1.04v-27.63c0-5.68,4.35-10.35,9.89-10.88v3.94c-3.38.5-5.98,3.42-5.98,6.94v27.63c0,.57.47,1.04,1.04,1.04s1.04-.47,1.04-1.04v-27.63c0-2.37,1.68-4.35,3.9-4.83v3.54c0,.57.47,1.04,1.04,1.04h5.71c.57,0,1.04-.47,1.04-1.04v-2.02h3.64v1.98c-1,1.3-1.61,2.93-1.61,4.7,0,.64.09,1.26.23,1.85h-1.48c-.44,0-.83.28-.98.69l-7.53,21.37c-.19.54.09,1.14.63,1.33.11.04.23.06.35.06.43,0,.83-.27.98-.69l7.29-20.68h1.6c1.35,2.26,3.81,3.78,6.63,3.78s5.28-1.52,6.63-3.78h1.37v5.51h-4.96c-.45,0-.84.28-.98.71l-.22.64h-6.51c-.57,0-1.04.47-1.04,1.04s.47,1.04,1.04,1.04h5.81l-1.37,4.04h-5.78c-.57,0-1.04.47-1.04,1.04s.47,1.04,1.04,1.04h5.08l-1.67,4.93c-.18.54.11,1.13.65,1.32.11.04.22.05.33.05.43,0,.84-.27.98-.71l4.41-13.07h5.25c.57,0,1.04-.47,1.04-1.04v-3.49h3.8v3.55c0,.17.04.33.12.48l5.8,11.22c.71,1.4,2.15,2.22,3.63,2.22.59,0,1.18-.13,1.74-.4.99-.48,1.72-1.31,2.07-2.35.35-1.04.27-2.15-.23-3.13l-5.12-9.88v-5.81c0-.57-.47-1.04-1.04-1.04s-1.04.47-1.04,1.04v6.06c0,.17.04.33.12.48l5.23,10.09c.24.48.28,1.02.11,1.52-.17.5-.53.91-1.01,1.14-.96.46-2.13.07-2.62-.89l-5.69-11v-22.36c0-1.06.86-1.92,1.92-1.92s1.92.86,1.92,1.92v8.88c0,.57.47,1.04,1.04,1.04h6.57v.59c0,.57.47,1.04,1.04,1.04h6c.57,0,1.04-.47,1.04-1.04v-1.75h4.89c.57,0,1.04-.47,1.04-1.04v-3.59h5.23c.57,0,1.04-.47,1.04-1.04v-6.27c0-.57-.47-1.04-1.04-1.04ZM75.68,145.86l17.72-17.72,2.77,2.77-17.72,17.72-2.77-2.77ZM113.17,161.2s0,0,0,0,0,0,0,0l-3.92,3.92s0,0,0,0l-.72.72-3.12-3.12,2.43-2.43,2.43-2.43,3.12,3.12-.21.21ZM96.49,133.53l9.05,9.05-15.41,15.41-9.05-9.05,15.41-15.42ZM106.43,144.64l2.69,11.43-2.75,2.75-2.75,2.75-11.43-2.69,14.25-14.25ZM98.06,182.14c-1.36.05-2.62.46-3.72,1.13v-7.42h7.51v4.05l-3.8,2.25ZM86.55,184.13h-3.64v-12.86h3.64v12.86ZM88.63,181.08v-6.74h3.64v6.74h-3.64ZM98.37,195.47c-3.11,0-5.63-2.53-5.63-5.63s2.53-5.63,5.63-5.63,5.63,2.53,5.63,5.63-2.53,5.63-5.63,5.63ZM108.44,194.75v-2.02c0-.57-.47-1.04-1.04-1.04h-1.56c.15-.59.23-1.21.23-1.85,0-.75-.11-1.46-.31-2.15h6.47v7.06h-3.8ZM120.24,185.61v-7.84c0-2.21-1.8-4-4-4s-4,1.8-4,4v7.84h-7.43c-.86-1.31-2.11-2.34-3.59-2.93l2.2-1.3c.32-.19.51-.53.51-.89v-5.68c0-.57-.47-1.04-1.04-1.04h-8.55v-3.96h14.17c1.59,0,2.88-1.29,2.88-2.88,0-.28-.05-.58-.14-.86l2.65-2.65,4.36,4.36c1.31,1.31,3.04,2.03,4.89,2.03h2.62v15.82h-5.53ZM131.77,187.23h-3.92v-19.02h3.92v19.02ZM137.71,184.45h-3.85v-13.45h3.85v13.45ZM143.98,179.82h-4.19v-4.19h4.19v4.19Z"/>
        <path class="cls-1" d="M98.37,186.96c-1.58,0-2.87,1.29-2.87,2.87s1.29,2.87,2.87,2.87,2.87-1.29,2.87-2.87-1.29-2.87-2.87-2.87ZM98.37,190.62c-.44,0-.79-.35-.79-.79s.35-.79.79-.79.79.35.79.79-.35.79-.79.79Z"/>
      </g>
    </g>
  </g>
</svg>
